<?xml version="1.0" encoding="utf-8"?>
<!-- Generator: Adobe Illustrator 18.0.0, SVG Export Plug-In . SVG Version: 6.00 Build 0)  -->
<!DOCTYPE svg PUBLIC "-//W3C//DTD SVG 1.1//EN" "http://www.w3.org/Graphics/SVG/1.1/DTD/svg11.dtd">
<svg version="1.1" id="Camada_1" xmlns="http://www.w3.org/2000/svg" xmlns:xlink="http://www.w3.org/1999/xlink" x="0px" y="0px"
	 viewBox="0 0 1300 550" enable-background="new 0 0 1300 550" xml:space="preserve">
<path fill="#FFFFFF" d="M1300,449C600.6,540,0,449,0,449L0,0c720,134,1300,25,1300,25V449z"/>
<path fill="#41E7F5" d="M1300,146c0,0-149.6,33.8-296.6-27.9c0,0-150.4-52.9-279.6,147.1c0,0-92.6,177.9,85.3,125
	c0,0,115.1-47.2,155.9,14.7c0,0,48.4,80.5,204.7-22.4c0,0,55.6-42.3,130.3,4.7V146z"/>
<path fill="#E2E2E2" d="M299.3,29.2c0,0-57.4,71.4-172.7,44.5c0,0-94.3-15.3-126.5,49L0,0C139.3,21.5,299.3,29.2,299.3,29.2z"/>
<path opacity="0.25" fill="#E2E2E2" d="M149.6,18.1c0,0-106.6,317.6,236.9,465c0,0-150.1-3.6-386.5-34.1L0,0
	C0,0,91.8,13.8,149.6,18.1z"/>
</svg>
