<?xml version="1.0" encoding="utf-8"?>
<!-- Generator: Adobe Illustrator 18.0.0, SVG Export Plug-In . SVG Version: 6.00 Build 0)  -->
<!DOCTYPE svg PUBLIC "-//W3C//DTD SVG 1.1//EN" "http://www.w3.org/Graphics/SVG/1.1/DTD/svg11.dtd">
<svg version="1.1" id="Camada_1" xmlns="http://www.w3.org/2000/svg" xmlns:xlink="http://www.w3.org/1999/xlink" x="0px" y="0px"
	 viewBox="0 0 1192.4 254.8" enable-background="new 0 0 1192.4 254.8" xml:space="preserve">
<path fill="#303B4F" d="M1300,287.2c-1300,0-1300,0-1300,0L0,0c816,68.8,1300,16,1300,16V287.2z"/>
<path opacity="5.000000e-002" fill="#FFFFFF" d="M1227.6,226.8c0,0-77.4-40-119.9-119.8c0,0-47-77.2-174.4-39c0,0-103.5,42.1-7,84.3
	c0,0,67.1,21.7,63,63c0,0-7.3,51.9,97.5,64.9c0,0,39.3,2.2,55.3,49.4L1227.6,226.8z"/>
<path opacity="5.000000e-002" fill="#FFFFFF" d="M-89.2,82.1c0,0,80.6,33.1,129.9,108.8c0,0,53.6,72.8,177.1,23.6
	c0,0,99.5-51-0.5-84.5c0,0-68.7-15.8-68.3-57.2c0,0,2.8-52.4-102.8-56.1c0,0-39.3,1.3-59.5-44.4L-89.2,82.1z"/>
</svg>
