<?xml version="1.0"?>
<svg xmlns="http://www.w3.org/2000/svg" viewBox="0 0 64 64" width="512" height="512"><g id="Cloud_server-2" data-name="Cloud server"><path d="M61,28a6,6,0,0,1-6,6H11A8,8,0,0,1,9.03,18.24,10,10,0,0,1,19,9a9.835,9.835,0,0,1,4.24.95A9,9,0,0,1,41,12c0,.16,0,.31-.01.46A10.01,10.01,0,0,1,54,22v.09A5.47,5.47,0,0,1,55,22,6,6,0,0,1,61,28Z" style="fill:#006df0"/><path d="M48,22v8H16V22a2.006,2.006,0,0,1,2-2H46A2.006,2.006,0,0,1,48,22Z" style="fill:#d1d3d4"/><rect x="16" y="30" width="32" height="10" style="fill:#bcbec0"/><path d="M48,40v8a2.006,2.006,0,0,1-2,2H18a2.006,2.006,0,0,1-2-2V40Z" style="fill:#a7a9ac"/><path d="M20,20a2.006,2.006,0,0,0-2,2v8H16V22a2.006,2.006,0,0,1,2-2Z" style="fill:#b7b9ba"/><rect x="16" y="30" width="2" height="10" style="fill:#a5a6a8"/><path d="M20,50H18a2.006,2.006,0,0,1-2-2V40h2v8A2.006,2.006,0,0,0,20,50Z" style="fill:#929497"/><circle cx="32" cy="58" r="3" style="fill:#ffd62e"/><rect x="35" y="23" width="10" height="4" style="fill:#c0fb36"/><rect x="35" y="33" width="10" height="4" style="fill:#c0fb36"/><rect x="35" y="43" width="10" height="4" style="fill:#c0fb36"/><rect x="12" y="33" width="2" height="2" style="fill:#f1f2f2"/><rect x="50" y="33" width="2" height="2" style="fill:#f1f2f2"/><rect x="19" y="22" width="2" height="2" style="fill:#ffcd00"/><rect x="19" y="26" width="2" height="2" style="fill:#ffcd00"/><rect x="22" y="22" width="2" height="2" style="fill:#ffcd00"/><rect x="22" y="26" width="2" height="2" style="fill:#ffcd00"/><rect x="25" y="22" width="2" height="2" style="fill:#ffcd00"/><rect x="25" y="26" width="2" height="2" style="fill:#ffcd00"/><rect x="28" y="22" width="2" height="2" style="fill:#ffcd00"/><rect x="28" y="26" width="2" height="2" style="fill:#ffcd00"/><rect x="19" y="32" width="2" height="2" style="fill:#ffcd00"/><rect x="19" y="36" width="2" height="2" style="fill:#ffcd00"/><rect x="22" y="32" width="2" height="2" style="fill:#ffcd00"/><rect x="22" y="36" width="2" height="2" style="fill:#ffcd00"/><rect x="25" y="32" width="2" height="2" style="fill:#ffcd00"/><rect x="25" y="36" width="2" height="2" style="fill:#ffcd00"/><rect x="28" y="32" width="2" height="2" style="fill:#ffcd00"/><rect x="28" y="36" width="2" height="2" style="fill:#ffcd00"/><rect x="19" y="42" width="2" height="2" style="fill:#ffcd00"/><rect x="19" y="46" width="2" height="2" style="fill:#ffcd00"/><rect x="22" y="42" width="2" height="2" style="fill:#ffcd00"/><rect x="22" y="46" width="2" height="2" style="fill:#ffcd00"/><rect x="25" y="42" width="2" height="2" style="fill:#ffcd00"/><rect x="25" y="46" width="2" height="2" style="fill:#ffcd00"/><rect x="28" y="42" width="2" height="2" style="fill:#ffcd00"/><rect x="28" y="46" width="2" height="2" style="fill:#ffcd00"/><path d="M62,57H34.816A3,3,0,0,0,33,55.184V50H31v5.184A3,3,0,0,0,29.184,57H2v2H29.184a2.982,2.982,0,0,0,5.632,0H62ZM32,59a1,1,0,1,1,1-1A1,1,0,0,1,32,59Z" style="fill:#006df0"/></g></svg>
