<?xml version="1.0" encoding="iso-8859-1"?>
<!-- Generator: Adobe Illustrator 19.0.0, SVG Export Plug-In . SVG Version: 6.00 Build 0)  -->
<svg version="1.1" id="Capa_1" xmlns="http://www.w3.org/2000/svg" xmlns:xlink="http://www.w3.org/1999/xlink" x="0px" y="0px"
	 viewBox="0 0 512 512" style="enable-background:new 0 0 512 512;" xml:space="preserve">
<path style="fill:#BEE8FF;" d="M473.56,387.266H38.44c-8.316,0-15.059-6.742-15.059-15.059V113.908
	c0-32.78,26.669-59.448,59.449-59.448H429.17c32.78,0,59.449,26.669,59.449,59.448v258.298
	C488.619,380.524,481.877,387.266,473.56,387.266z"/>
<path style="fill:#54CBFF;" d="M429.17,54.46H259.023v332.806H473.56c8.316,0,15.059-6.742,15.059-15.059V113.908
	C488.619,81.129,461.949,54.46,429.17,54.46z"/>
<path style="fill:#0053AD;" d="M455.109,457.54H56.891C25.521,457.54,0,432.019,0,400.649v-28.441
	c0-8.316,6.742-15.059,15.059-15.059h481.883c8.316,0,15.059,6.742,15.059,15.059v28.441C512,432.019,486.479,457.54,455.109,457.54
	z"/>
<path style="fill:#18A7FC;" d="M165.328,334.329c-6.196,0-12.221-2.434-16.792-7.004c-6.495-6.494-8.676-15.925-5.69-24.611
	l13.346-38.839c-6.539-14.424-9.984-30.25-10.008-46.165c-0.095-60.957,49.397-111.336,110.325-112.303
	c30.681-0.494,59.453,11.173,81.11,32.83c21.657,21.657,33.318,50.462,32.833,81.11c-0.965,60.87-51.251,110.325-112.129,110.328
	c-0.06,0-0.114,0-0.175,0c-15.914-0.024-31.74-3.469-46.164-10.008l-38.839,13.346C170.572,333.899,167.934,334.329,165.328,334.329
	z"/>
<g>
	<path style="fill:#FEEB70;" d="M259.022,280.448c7.877,0,15.423-6.926,15.059-15.059c-0.365-8.159-6.617-15.059-15.059-15.059
		c-7.877,0-15.423,6.926-15.059,15.059C244.33,273.548,250.58,280.448,259.022,280.448L259.022,280.448z"/>
	<path style="fill:#FEEB70;" d="M259.022,244.696c-8.316,0-15.059-6.742-15.059-15.059v-13.133c0-8.316,6.742-15.059,15.059-15.059
		c4.849,0,8.793-3.944,8.793-8.793s-3.944-8.794-8.793-8.794c-4.849,0-8.794,3.945-8.794,8.794c0,8.316-6.742,15.059-15.059,15.059
		c-8.316,0-15.059-6.742-15.059-15.059c0-21.456,17.456-38.911,38.911-38.911s38.91,17.456,38.91,38.911
		c0,16.119-9.852,29.981-23.852,35.879v1.106C274.081,237.953,267.339,244.696,259.022,244.696z"/>
</g>
<path style="fill:#003773;" d="M496.941,357.149H259.023V457.54h196.085c31.37,0,56.891-25.521,56.891-56.891v-28.441
	C512,363.892,505.258,357.149,496.941,357.149z"/>
<path style="fill:#0074F0;" d="M259.023,105.398v224.269c60.563-0.382,110.468-49.683,111.429-110.319
	c0.485-30.647-11.175-59.453-32.833-81.11C316.555,117.174,288.759,105.564,259.023,105.398z"/>
<g>
	<path style="fill:#FCB629;" d="M274.082,265.389c-0.365-8.159-6.617-15.059-15.059-15.059v30.117
		C266.9,280.448,274.445,273.522,274.082,265.389z"/>
	<path style="fill:#FCB629;" d="M259.023,153.74v30.117c4.849,0,8.792,3.945,8.792,8.794s-3.943,8.793-8.792,8.793v43.25
		c8.316,0,15.058-6.742,15.058-15.059v-1.106c13.998-5.898,23.852-19.76,23.852-35.879
		C297.932,171.196,280.478,153.741,259.023,153.74z"/>
</g>
<g>
</g>
<g>
</g>
<g>
</g>
<g>
</g>
<g>
</g>
<g>
</g>
<g>
</g>
<g>
</g>
<g>
</g>
<g>
</g>
<g>
</g>
<g>
</g>
<g>
</g>
<g>
</g>
<g>
</g>
</svg>
