<?xml version="1.0" encoding="iso-8859-1"?>
<!-- Generator: Adobe Illustrator 19.0.0, SVG Export Plug-In . SVG Version: 6.00 Build 0)  -->
<svg version="1.1" id="Layer_1" xmlns="http://www.w3.org/2000/svg" xmlns:xlink="http://www.w3.org/1999/xlink" x="0px" y="0px"
	 viewBox="0 0 512 512" style="enable-background:new 0 0 512 512;" xml:space="preserve">
<path style="fill:#ECE5DD;" d="M477.474,82.886H7.545v345.465c0,41.902,34.089,75.992,75.992,75.992h393.937
	c14.878,0,26.981-12.104,26.981-26.981V109.866C504.455,94.988,492.351,82.886,477.474,82.886z"/>
<path style="fill:#D9CBBD;" d="M477.474,82.886h-31.798c14.878,0,26.981,12.104,26.981,26.981v367.495
	c0,14.878-12.104,26.981-26.981,26.981h31.798c14.878,0,26.981-12.104,26.981-26.981V109.866
	C504.455,94.988,492.351,82.886,477.474,82.886z"/>
<path style="fill:#B39A7C;" d="M7.545,83.425c0-38.016,28.365-70.391,65.989-75.339l0.556-0.082l0.73-0.008
	c2.245,0,4.414,0.822,6.11,2.314c1.995,1.751,3.146,4.29,3.146,6.96v333.825c0,4.747-3.571,8.706-8.307,9.207
	c-21.021,2.173-40.203,13.142-52.649,30.098L7.545,411.62V83.425z"/>
<path style="fill:#C0AB91;" d="M416.507,310.093l-10.141-1.814h-20.72v132.354h20.72l10.141-1.814
	c25.977-4.645,44.832-27.18,44.832-53.584v-21.558C461.339,337.273,442.484,314.736,416.507,310.093z"/>
<g>
	<path style="fill:#6B563C;" d="M170.307,341.041l-29.421,22.067c-3.607,2.704-5.675,6.84-5.675,11.348s2.068,8.646,5.674,11.348
		l29.422,22.067h22.638v-66.829H170.307z"/>
	<path style="fill:#6B563C;" d="M188.198,407.871l-52.894-31.81c0.43,3.875,2.41,7.365,5.582,9.743l29.421,22.067H188.198z"/>
</g>
<polygon style="fill:#C0AB91;" points="212.345,309.243 169.229,341.85 169.229,407.062 212.345,439.669 235.775,439.669 
	235.775,309.243 "/>
<g>
	<rect x="212.345" y="309.248" style="fill:#FFB656;" width="171.385" height="130.425"/>
	<path style="fill:#FFB656;" d="M415.769,224.582L178.06,12.343c-3.374-3.015-7.662-4.675-12.072-4.675
		c-2.578,0-5.11,0.549-7.531,1.632c-6.652,2.979-10.784,9.358-10.784,16.647v212.241c0,10.057,8.182,18.239,18.239,18.239h237.71
		c9.263,0,14.877-6.063,17.042-11.739C422.827,239.013,422.678,230.752,415.769,224.582z M285.415,202.532h-74.412
		c-5.212,0-9.436-4.224-9.436-9.436v-66.439c0-8.152,9.64-12.467,15.72-7.039l74.412,66.439
		C298.164,191.829,294.081,202.532,285.415,202.532z"/>
</g>
<path style="fill:#FE5022;" d="M385.347,450.448c-12.185,0-22.097-9.912-22.097-22.097V320.561c0-12.185,9.912-22.097,22.097-22.097
	s22.097,9.912,22.097,22.097v107.789C407.444,440.534,397.532,450.448,385.347,450.448z"/>
<path d="M477.474,75.34H259.946L183.084,6.713c-7.686-6.863-18.304-8.511-27.709-4.3c-9.406,4.211-15.248,13.228-15.248,23.534
	V75.34H91.621V17.27c0-4.838-2.086-9.445-5.723-12.637c-3.637-3.194-8.471-4.666-13.268-4.039C31.224,5.997,0,41.608,0,83.425
	v344.926c0,46.062,37.475,83.537,83.537,83.537h393.937c19.038,0,34.526-15.488,34.526-34.526V109.866
	C512,90.829,496.512,75.34,477.474,75.34z M156.295,25.947c0-3.901,2.126-7.182,5.686-8.777c1.315-0.589,2.672-0.877,4.007-0.877
	c2.279,0,4.493,0.843,6.327,2.482l237.71,212.241c4.584,4.094,3.133,9.148,2.58,10.6c-0.553,1.452-2.838,6.188-8.984,6.188h-42.526
	V234.33c0-4.466-3.618-8.084-8.084-8.084c-4.466,0-8.084,3.618-8.084,8.084v13.474h-26.947V234.33c0-4.466-3.618-8.084-8.084-8.084
	s-8.084,3.618-8.084,8.084v13.474h-26.947V234.33c0-4.466-3.618-8.084-8.084-8.084s-8.084,3.618-8.084,8.084v13.474h-26.947V234.33
	c0-4.466-3.62-8.084-8.084-8.084c-4.465,0-8.084,3.618-8.084,8.084v13.474h-49.668c-5.302,0-9.616-4.314-9.616-9.616V25.947z
	 M16.168,83.425c0-33.724,25.173-62.442,58.554-66.798c0.071-0.011,0.288-0.038,0.508,0.156c0.222,0.194,0.222,0.414,0.222,0.487
	v327.358c0,0.326-0.254,0.597-0.593,0.633c-24.309,2.511-45.2,15.19-58.691,33.57C16.168,378.83,16.168,83.425,16.168,83.425z
	 M495.832,477.362c0,10.122-8.236,18.358-18.358,18.358H83.537c-37.146,0-67.368-30.221-67.368-67.368
	c0-34.647,25.946-63.454,60.352-67.008c8.609-0.888,15.1-8.074,15.1-16.715V91.509h48.505v146.679
	c0,14.217,11.567,25.784,25.784,25.784h237.71c10.79,0,20.245-6.514,24.091-16.595c3.845-10.08,1.131-21.237-6.918-28.423
	L278.055,91.509h199.419c10.122,0,18.358,8.236,18.358,18.358V477.362z"/>
<path d="M202.105,210.077h106.633c3.352,0,6.357-2.07,7.554-5.203c1.194-3.132,0.332-6.678-2.17-8.912l-106.633-95.207
	c-2.377-2.122-5.779-2.649-8.688-1.347c-2.908,1.302-4.78,4.192-4.78,7.378v95.207C194.021,206.458,197.641,210.077,202.105,210.077
	z M210.189,124.842l77.356,69.067h-77.356V124.842z"/>
<path d="M408.224,301.732c-5.441-6.599-13.676-10.812-22.876-10.812c-9.185,0-17.407,4.199-22.848,10.779H212.884
	c-1.821,0-3.495,0.609-4.845,1.623l-0.005-0.006l-71.677,53.757c-5.651,4.238-8.837,10.774-8.687,17.862
	c0.144,6.818,3.651,13.13,9.106,17.221l71.257,53.442l0.005-0.006c1.352,1.014,3.026,1.623,4.845,1.623h31.661
	c4.465,0,8.084-3.62,8.084-8.084s-3.62-8.084-8.084-8.084h-23.577v-80.842h67.03c4.427,0,8.287-3.412,8.419-7.837
	c0.137-4.578-3.533-8.331-8.081-8.331h-67.368v-16.168h134.737v16.168h-34.693c-4.427,0-8.287,3.412-8.419,7.836
	c-0.137,4.579,3.533,8.332,8.081,8.332h35.032v80.842H280.19c-4.465,0-8.084,3.62-8.084,8.084s3.62,8.084,8.084,8.084h82.309
	c5.441,6.579,13.663,10.779,22.848,10.779c9.2,0,17.435-4.213,22.876-10.812c33.568-0.707,60.661-28.212,60.661-61.945v-21.558
	C468.884,329.943,441.791,302.438,408.224,301.732z M161.684,390.623l-15.625-11.719c-1.414-1.06-2.225-2.682-2.225-4.45
	s0.811-3.39,2.225-4.45l15.625-11.718V390.623z M204.8,422.961l-26.947-20.211v-56.589l26.947-20.211V422.961z M398.821,428.351
	c0,7.43-6.044,13.474-13.474,13.474s-13.474-6.044-13.474-13.474V320.561c0-7.43,6.044-13.474,13.474-13.474
	s13.474,6.044,13.474,13.474V428.351z M414.989,318.581c21.418,3.83,37.726,22.594,37.726,45.096v21.558
	c0,22.502-16.309,41.266-37.726,45.096V318.581z"/>
<g>
</g>
<g>
</g>
<g>
</g>
<g>
</g>
<g>
</g>
<g>
</g>
<g>
</g>
<g>
</g>
<g>
</g>
<g>
</g>
<g>
</g>
<g>
</g>
<g>
</g>
<g>
</g>
<g>
</g>
</svg>
