<?xml version="1.0"?>
<svg xmlns="http://www.w3.org/2000/svg" viewBox="0 0 64 64" width="512" height="512"><g id="Flat"><path d="M5,61H59a2,2,0,0,0,2-2V11H3V59A2,2,0,0,0,5,61Z" style="fill:#e6e6e6"/><rect x="7" y="15" width="16" height="10" style="fill:#83beb9"/><rect x="35" y="41" width="22" height="16" style="fill:#ffdaaa"/><path d="M3,11H61V5a2,2,0,0,0-2-2H5A2,2,0,0,0,3,5Z" style="fill:#b3b3b3"/><path d="M49,8H15a1,1,0,0,1,0-2H49a1,1,0,0,1,0,2Z" style="fill:#e6e6e6"/><rect x="27" y="15" width="30" height="10" style="fill:#a7d6dd"/><rect x="7" y="29" width="50" height="8" style="fill:#f5cf68"/><rect x="7" y="41" width="24" height="16" style="fill:#83beb9"/><polygon points="16.887 20 23 16.18 23 15 21.113 15 15 18.82 8.887 15 7 15 7 16.18 13.113 20 7 23.82 7 25 8.887 25 15 21.18 21.113 25 23 25 23 23.82 16.887 20" style="fill:#02998a"/><polygon points="47.7 49 57 42.236 57 41 55.3 41 46 47.764 36.7 41 35 41 35 42.236 44.3 49 35 55.764 35 57 36.7 57 46 50.236 55.3 57 57 57 57 55.764 47.7 49" style="fill:#ff6536"/></g></svg>
